<?xml version="1.0" encoding="UTF-8"?>
<svg xmlns="http://www.w3.org/2000/svg" width="22" height="22" viewBox="0 0 22 22" fill="none">
  <path d="M11 0.09375C5.11328 0.09375 0.34375 4.86328 0.34375 10.75C0.34375 16.6367 5.11328 21.4062 11 21.4062C16.8867 21.4062 21.6562 16.6367 21.6562 10.75C21.6562 4.86328 16.8867 0.09375 11 0.09375ZM16.1992 13.5859C16.4141 13.7578 16.4141 14.1016 16.1992 14.3164L14.5234 15.9922C14.3086 16.207 13.9648 16.207 13.793 15.9922L11 13.1562L8.16406 15.9922C7.99219 16.207 7.64844 16.207 7.43359 15.9922L5.75781 14.2734C5.54297 14.1016 5.54297 13.7578 5.75781 13.543L8.59375 10.75L5.75781 7.95703C5.54297 7.78516 5.54297 7.44141 5.75781 7.22656L7.47656 5.55078C7.64844 5.33594 7.99219 5.33594 8.20703 5.55078L11 8.34375L13.793 5.55078C13.9648 5.33594 14.3086 5.33594 14.5234 5.55078L16.1992 7.22656C16.4141 7.44141 16.4141 7.78516 16.1992 7.95703L13.4062 10.75L16.1992 13.5859Z" fill="#B5B5BA"></path>
</svg>
