<?xml version="1.0" encoding="UTF-8" standalone="no"?>
<svg xmlns:inkscape="http://www.inkscape.org/namespaces/inkscape" xmlns:sodipodi="http://sodipodi.sourceforge.net/DTD/sodipodi-0.dtd" xmlns="http://www.w3.org/2000/svg" xmlns:svg="http://www.w3.org/2000/svg" width="251" height="66" viewBox="0 0 251 66" fill="none" version="1.1" id="svg8" sodipodi:docname="logo.svg" inkscape:version="1.3 (0e150ed6c4, 2023-07-21)">
  <defs id="defs8"></defs>
  <path d="m 94.168,25.249 h 15.707 c 2.618,0 4.512,0.5984 5.684,1.7951 1.197,1.1718 1.795,3.0666 1.795,5.6844 v 3.3657 c 0,2.0693 -0.349,3.6774 -1.047,4.8242 -0.673,1.1469 -1.758,1.9073 -3.253,2.2813 l 4.674,8.2273 h -7.292 l -4.301,-7.8534 h -5.236 v 7.8534 h -6.731 z m 16.455,7.4795 c 0,-1.4959 -0.748,-2.2439 -2.244,-2.2439 h -7.48 v 7.8534 h 7.48 c 1.496,0 2.244,-0.7479 2.244,-2.2438 z" fill="#101112" id="path1"></path>
  <path d="m 138.608,25.249 h 6.732 v 19.0726 c 0,2.6178 -0.599,4.525 -1.796,5.7217 -1.171,1.1718 -3.066,1.7577 -5.684,1.7577 h -8.601 c -2.618,0 -4.525,-0.5859 -5.722,-1.7577 -1.172,-1.1967 -1.758,-3.1039 -1.758,-5.7217 V 25.249 h 6.732 v 19.0726 c 0,1.4959 0.748,2.2438 2.244,2.2438 h 5.609 c 1.496,0 2.244,-0.7479 2.244,-2.2438 z" fill="#101112" id="path2"></path>
  <path d="m 156.122,51.427 h -6.731 V 25.249 h 20.755 v 5.2356 h -14.024 v 6.1706 h 11.032 v 5.2356 h -11.032 z" fill="#101112" id="path3"></path>
  <path d="m 177.378,51.427 h -7.292 l 9.91,-26.178 h 7.48 l 9.91,26.178 h -7.293 l -1.682,-4.6746 h -9.35 z m 3.366,-9.5362 h 5.984 l -2.992,-8.7884 z" fill="#101112" id="path4"></path>
  <path d="m 222.64,50.8661 c -5.834,0.6233 -11.194,0.9349 -16.08,0.9349 -2.444,0 -4.239,-0.5734 -5.386,-1.7203 -1.146,-1.1468 -1.72,-2.9419 -1.72,-5.3851 V 32.7285 c 0,-2.6178 0.586,-4.5126 1.758,-5.6844 1.196,-1.1967 3.104,-1.7951 5.722,-1.7951 h 13.463 v 5.2356 h -11.968 c -1.495,0 -2.243,0.748 -2.243,2.2439 v 11.9671 c 0,0.5734 0.162,1.0346 0.486,1.3836 0.349,0.3242 0.81,0.4862 1.383,0.4862 2.868,0 5.485,-0.0623 7.854,-0.187 v -5.4226 h -4.862 v -4.4876 h 11.593 z" fill="#101112" id="path5"></path>
  <path d="m 244.268,32.3544 c 0,-1.4959 -0.748,-2.2438 -2.244,-2.2438 h -6.357 c -1.496,0 -2.244,0.7479 -2.244,2.2438 v 11.9671 c 0,1.4959 0.748,2.2439 2.244,2.2439 h 6.357 c 1.496,0 2.244,-0.748 2.244,-2.2439 z M 251,44.3215 c 0,2.6178 -0.599,4.5251 -1.795,5.7218 -1.172,1.1718 -3.067,1.7577 -5.685,1.7577 h -9.349 c -2.618,0 -4.525,-0.5859 -5.722,-1.7577 -1.172,-1.1967 -1.758,-3.104 -1.758,-5.7218 V 32.3544 c 0,-2.6178 0.586,-4.5126 1.758,-5.6843 1.197,-1.1967 3.104,-1.7951 5.722,-1.7951 h 9.349 c 2.618,0 4.513,0.5984 5.685,1.7951 1.196,1.1717 1.795,3.0665 1.795,5.6843 z" fill="#101112" id="path6"></path>
  <path d="M 3.93841,25.002 H 16.013 c 1.2369,3e-4 2.4402,0.4017 3.4296,1.144 0.9893,0.7423 1.7112,1.7854 2.0574,2.9729 l 3.0147,31.7702 c 0.3461,1.187 1.0679,2.2297 2.0569,2.9717 0.989,0.742 2.192,1.1432 3.4284,1.1435 h -9.5 c -1.2374,4e-4 -2.4416,-0.4007 -3.4316,-1.143 -0.99,-0.7424 -1.7124,-1.7859 -2.0587,-2.9739 L 0.73822,29.2689 C 0.593317,28.7721 0.566071,28.2483 0.658646,27.7392 0.751221,27.23 0.961075,26.7494 1.27158,26.3354 1.58209,25.9214 1.98473,25.5853 2.44761,25.3539 2.91049,25.1224 3.42089,25.002 3.93841,25.002 Z" fill="#1ac221" id="path7"></path>
  <path fill-rule="evenodd" clip-rule="evenodd" d="m 82.3379,15.297 c 9e-4,-0.6569 -0.1279,-1.3075 -0.3788,-1.9145 -0.251,-0.6071 -0.6193,-1.1587 -1.0838,-1.6232 -0.4645,-0.4645 -1.0161,-0.8328 -1.6231,-1.0837 -0.6071,-0.251 -1.2577,-0.3798 -1.9146,-0.3789 H 51.2694 c -0.7442,10e-5 -1.4791,-0.166 -2.1509,-0.4861 -0.6719,-0.32 -1.2638,-0.786 -1.7327,-1.364 L 44.1189,4.4297 C 43.4962,3.6592 42.709,3.0378 41.8149,2.611 40.9209,2.1841 39.9427,1.9627 38.952,1.9629 H 20.0175 C 19.3606,1.962 18.71,2.0908 18.1029,2.3417 17.4959,2.5927 16.9443,2.961 16.4798,3.4255 16.0153,3.89 15.647,4.4416 15.396,5.0486 15.1451,5.6557 15.0163,6.3063 15.0172,6.9632 v 52.3244 c -0.0035,0.7508 0.1437,1.4946 0.4329,2.1874 0.2892,0.6929 0.7144,1.3206 1.2505,1.8462 0.5256,0.5361 1.1534,0.9614 1.8462,1.2505 0.6929,0.2892 1.4367,0.4364 2.1874,0.4329 h 19.9217 l 1.6846,-8.6635 h 14.1852 l 1.9252,8.6635 h 18.3867 c 1.2384,-4e-4 2.4434,-0.4016 3.4348,-1.1437 0.9914,-0.7421 1.716,-1.7851 2.0655,-2.9732 z m -31.2467,8.325 c 1.6779,-0.5874 2.8813,-2.1848 2.8813,-4.0633 0,-2.3771 -1.927,-4.3041 -4.3041,-4.3041 -2.377,0 -4.304,1.927 -4.304,4.3041 0,1.8058 1.112,3.3518 2.6887,3.9906 v 2.9666 h -14.335 c -6.1524,0 -11.1399,4.9875 -11.1399,11.1399 v 3.9082 c 0,6.1524 4.9875,11.1399 11.1399,11.1399 h 31.5512 c 6.1524,0 11.1399,-4.9875 11.1399,-11.1399 v -3.9082 c 0,-6.1524 -4.9875,-11.1399 -11.1399,-11.1399 H 51.0912 Z M 40.0369,39.6098 c 0,2.8123 -2.2798,5.0921 -5.0921,5.0921 -2.8123,0 -5.0921,-2.2798 -5.0921,-5.0921 0,-2.8123 2.2798,-5.0921 5.0921,-5.0921 2.8123,0 5.0921,2.2798 5.0921,5.0921 z m 24.0057,5.0921 c 2.8123,0 5.0921,-2.2798 5.0921,-5.0921 0,-2.8123 -2.2798,-5.0921 -5.0921,-5.0921 -2.8123,0 -5.0921,2.2798 -5.0921,5.0921 0,2.8123 2.2798,5.0921 5.0921,5.0921 z" fill="#0075ff" id="path8"></path>
</svg>
