<svg id="embedsocial-logo" width="20" height="20" viewBox="0 0 30 30" fill="none" xmlns="http://www.w3.org/2000/svg"><rect width="30" height="30" rx="15" fill="#0033ff"></rect><path d="M14.9997 10.2619V13.1933C14.9997 13.3345 15.0737 13.4652 15.1948 13.5377L19.1576 15.9157C19.659 16.2165 19.659 16.9428 19.1576 17.2438L14.9997 19.7385V21.7526C14.9997 22.2565 15.5492 22.5677 15.9813 22.3085L21.5425 18.9716C22.3828 18.4676 22.8969 17.5595 22.8969 16.5797C22.8969 15.5997 22.3828 14.6917 21.5425 14.1876L14.9997 10.2619Z" fill="#ffffff"></path><path d="M10.8421 12.7566L15 10.2619V8.24781C15 7.74395 14.4505 7.43296 14.0184 7.69194L8.4572 11.0288C7.61692 11.5328 7.10286 12.4409 7.10286 13.4207C7.10286 14.4007 7.61692 15.3087 8.4572 15.8128L15 19.7385V16.8074C15 16.666 14.926 16.5353 14.8049 16.4627L10.8421 14.0848C10.3407 13.7841 10.3407 13.0576 10.8421 12.7566Z" fill="#ffffff"></path></svg>