<svg xmlns="http://www.w3.org/2000/svg" width="96" height="96" viewBox="0 0 96 96" fill="none">
    <g clip-path="url(#clip0_742_10784)">
        <path
            d="M60.0492 57.3639C56.798 55.8114 52.5192 54.9564 48.0023 54.9564C43.4817 54.9564 39.2011 55.8114 35.9498 57.3639C32.3442 59.0851 30.3586 61.5001 30.3586 64.1645V86.8126C30.3586 89.4826 32.3405 91.8995 35.9386 93.617C39.1842 95.1676 43.4686 96.0207 48.0005 96.0207C52.5305 96.0207 56.813 95.1676 60.0586 93.617C63.6567 91.8976 65.6386 89.4826 65.6386 86.8126V64.1664C65.6386 61.502 63.653 59.087 60.0492 57.3639ZM62.6367 75.5401C62.6367 78.4745 56.6255 81.7445 48.0023 81.7445C39.3755 81.7445 33.3623 78.4745 33.3623 75.5401V69.407C34.0992 69.9732 34.9636 70.4964 35.9498 70.967C39.2011 72.5195 43.4817 73.3745 48.0023 73.3745C52.5211 73.3745 56.798 72.5195 60.0492 70.967C61.0355 70.4964 61.8998 69.9732 62.6367 69.407V75.5401ZM48.0005 57.9601C56.6255 57.9601 62.6348 61.2301 62.6348 64.1645C62.6348 67.0989 56.6236 70.3689 48.0005 70.3689C39.3736 70.3689 33.3605 67.0989 33.3605 64.1645C33.3605 61.2301 39.3736 57.9601 48.0005 57.9601ZM48.0005 93.017C39.3736 93.017 33.3605 89.747 33.3605 86.8126V80.7901C34.0955 81.3545 34.9561 81.8757 35.9386 82.3445C39.1842 83.8951 43.4686 84.7482 48.0005 84.7482C52.5305 84.7482 56.813 83.8951 60.0586 82.3445C61.0411 81.8757 61.9017 81.3545 62.6348 80.7901V86.8126C62.6367 89.747 56.6255 93.017 48.0005 93.017ZM87.6886 -0.0205078H73.8173C72.9998 -0.0205078 72.2573 0.285117 71.6611 0.871992L67.1011 5.43762C66.518 6.02074 66.2105 6.76699 66.2105 7.59387V31.6126C66.2105 33.2926 67.5773 34.6614 69.2592 34.6614H87.6923C89.3723 34.6614 90.7411 33.2945 90.7411 31.6126V3.02824C90.7355 1.34637 89.3686 -0.0205078 87.6886 -0.0205078ZM72.6755 4.10262V6.45387H70.328L72.6755 4.10262ZM87.7336 31.6107C87.7336 31.6314 87.7092 31.6557 87.6886 31.6557H69.2555C69.2292 31.6557 69.2105 31.6314 69.2105 31.6107V9.45574H74.1773C75.0061 9.45574 75.6792 8.78449 75.6792 7.95387V2.98324H87.6886C87.7092 2.98324 87.7336 3.00762 87.7336 3.02824V31.6107ZM85.5905 13.3501C85.5905 14.1789 84.9192 14.852 84.0886 14.852H72.8536C72.0248 14.852 71.3517 14.1807 71.3517 13.3501C71.3517 12.5195 72.023 11.8482 72.8536 11.8482H84.0886C84.9192 11.8482 85.5905 12.5195 85.5905 13.3501ZM85.5905 23.2295C85.5905 24.0582 84.9192 24.7314 84.0886 24.7314H72.8536C72.0248 24.7314 71.3517 24.0601 71.3517 23.2295C71.3517 22.3989 72.023 21.7276 72.8536 21.7276H84.0886C84.9192 21.7276 85.5905 22.4007 85.5905 23.2295ZM38.7848 34.6595H57.218C58.898 34.6595 60.2667 33.2926 60.2667 31.6107V3.02824C60.2667 1.34824 58.8998 -0.0205078 57.218 -0.0205078H43.3467C42.5292 -0.0205078 41.7867 0.285117 41.1905 0.871992L36.6305 5.43762C36.0436 6.02449 35.7342 6.77074 35.7342 7.59387V31.6126C35.7323 33.2926 37.1011 34.6595 38.7848 34.6595ZM57.263 3.02824V31.6126C57.263 31.6332 57.2386 31.6576 57.218 31.6576H38.7848C38.7548 31.6576 38.7342 31.6314 38.7342 31.6126V9.45574H43.7067C44.5355 9.45574 45.2086 8.78449 45.2086 7.95387V2.98324H57.218C57.2386 2.98324 57.263 3.00574 57.263 3.02824ZM42.2048 4.10262V6.45387H39.8573L42.2048 4.10262ZM53.6142 11.8482C54.443 11.8482 55.1161 12.5195 55.1161 13.3501C55.1161 14.1807 54.4448 14.852 53.6142 14.852H42.383C41.5542 14.852 40.8811 14.1807 40.8811 13.3501C40.8811 12.5195 41.5523 11.8482 42.383 11.8482H53.6142ZM55.1161 23.2295C55.1161 24.0582 54.4448 24.7314 53.6142 24.7314H42.383C41.5542 24.7314 40.8811 24.0601 40.8811 23.2295C40.8811 22.3989 41.5523 21.7276 42.383 21.7276H53.6142C54.443 21.7276 55.1161 22.4007 55.1161 23.2295ZM29.7942 31.6107V3.02824C29.7942 1.34824 28.4236 -0.0205078 26.7417 -0.0205078H12.8742C12.0567 -0.0205078 11.3142 0.285117 10.718 0.870117L6.14297 5.44512C5.56547 6.03199 5.26172 6.77449 5.26172 7.59199V31.6107C5.26172 33.2907 6.62859 34.6595 8.31047 34.6595H26.7436C28.4255 34.6595 29.7942 33.2926 29.7942 31.6107ZM11.7342 4.10074V6.45199H9.38297L11.7342 4.10074ZM8.26359 31.6107V9.45574H13.2361C14.0648 9.45574 14.738 8.78449 14.738 7.95387V2.98324H26.7417C26.7717 2.98324 26.7923 3.00949 26.7923 3.02824V31.6126C26.7923 31.6314 26.7717 31.6576 26.7417 31.6576H8.30859C8.28797 31.6557 8.26359 31.6332 8.26359 31.6107ZM24.6455 13.3501C24.6455 14.1789 23.9742 14.852 23.1436 14.852H11.9067C11.078 14.852 10.4048 14.1807 10.4048 13.3501C10.4048 12.5195 11.0761 11.8482 11.9067 11.8482H23.1417C23.9723 11.8482 24.6455 12.5195 24.6455 13.3501ZM24.6455 23.2295C24.6455 24.0582 23.9742 24.7314 23.1436 24.7314H11.9067C11.078 24.7314 10.4048 24.0601 10.4048 23.2295C10.4048 22.3989 11.0761 21.7276 11.9067 21.7276H23.1417C23.9723 21.7276 24.6455 22.4007 24.6455 23.2295ZM80.0367 39.4239C79.0617 44.5389 76.0523 48.5832 70.8567 51.752L72.3661 52.2545C73.1536 52.517 73.5792 53.3664 73.3167 54.1539C73.2545 54.341 73.156 54.5141 73.0268 54.6632C72.8977 54.8123 72.7404 54.9345 72.564 55.0228C72.3876 55.111 72.1956 55.1637 71.9988 55.1777C71.8021 55.1918 71.6045 55.1669 71.4173 55.1045L66.6117 53.5051C66.2342 53.3794 65.922 53.1089 65.7437 52.7531C65.5655 52.3973 65.5358 51.9853 65.6611 51.6076L67.2605 46.802C67.523 46.0145 68.3723 45.5889 69.1598 45.8514C69.9473 46.1139 70.373 46.9632 70.1105 47.7507L69.7205 48.9226C73.8886 46.2582 76.3055 42.9545 77.0855 38.8632C77.2411 38.0495 78.0267 37.5151 78.8423 37.6689C79.658 37.8226 80.1923 38.6101 80.0367 39.4239ZM30.2517 52.7514C30.0734 53.1072 29.7612 53.3776 29.3836 53.5032L24.578 55.1026C24.2 55.2281 23.7878 55.1984 23.4316 55.0202C23.0755 54.842 22.8047 54.5297 22.6786 54.152C22.4161 53.3645 22.8417 52.5151 23.6292 52.2526L25.1348 51.752C19.9411 48.5757 16.9317 44.5314 15.9586 39.4239C15.803 38.6101 16.3373 37.8226 17.153 37.667C17.9686 37.5114 18.7542 38.0457 18.9098 38.8614C19.6898 42.947 22.1067 46.2526 26.2767 48.9226L25.8848 47.7489C25.6223 46.9614 26.048 46.112 26.8355 45.8495C27.623 45.587 28.4723 46.0126 28.7348 46.8001L30.3342 51.6057C30.4598 51.9826 30.4317 52.3951 30.2517 52.7514ZM49.5023 39.1426V46.7007L50.5167 45.6864C51.1036 45.0995 52.0542 45.0995 52.6411 45.6864C53.228 46.2732 53.228 47.2239 52.6411 47.8107L49.0636 51.3882C48.7711 51.6807 48.3867 51.8289 48.0023 51.8289C47.618 51.8289 47.2355 51.6826 46.9411 51.3901L43.358 47.8126C42.7711 47.2257 42.7711 46.2751 43.3561 45.6901C43.9411 45.1032 44.8917 45.1032 45.4786 45.6882L46.4986 46.7064V39.1445C46.4986 38.3157 47.1698 37.6426 48.0005 37.6426C48.8311 37.6426 49.5023 38.3139 49.5023 39.1426Z"
            fill="#0075FF" />
    </g>
    <defs>
        <clipPath id="clip0_742_10784">
            <rect width="96" height="96" fill="white" />
        </clipPath>
    </defs>
</svg>