<?xml version="1.0" encoding="UTF-8"?>
<!-- Generator: Adobe Illustrator 27.5.0, SVG Export Plug-In . SVG Version: 6.00 Build 0)  -->
<svg xmlns="http://www.w3.org/2000/svg" xmlns:xlink="http://www.w3.org/1999/xlink" version="1.1" id="Layer_1" x="0px" y="0px" viewBox="0 0 22 22" style="enable-background:new 0 0 22 22;" xml:space="preserve">
<style type="text/css">
	.st0{fill:#00B23B;}
</style>
<path class="st0" d="M11,0.1C5.1,0.1,0.3,4.9,0.3,10.8c0,5.9,4.8,10.7,10.7,10.7c5.8,0,10.7-4.8,10.7-10.7C21.7,4.9,16.8,0.1,11,0.1  z M6.7,16.4L2.3,12c-0.3-0.3-0.3-0.7,0-1l1-0.9c0.3-0.3,0.7-0.3,0.9,0l3.1,3l6.4-6.4c0.3-0.3,0.7-0.3,0.9,0l1,0.9  c0.3,0.3,0.3,0.7,0,1l-7.9,7.9C7.5,16.7,7,16.7,6.7,16.4z M18.8,10L18.8,10l-6.5,6.4c-0.1,0.1-0.3,0.2-0.4,0.2c0,0,0,0,0,0  c-0.2,0-0.3-0.1-0.5-0.2l-1-0.9c-0.3-0.3-0.3-0.7,0-1l7.9-7.9c0.1-0.1,0.3-0.2,0.4-0.2c0,0,0,0,0,0c0.2,0,0.3,0.1,0.5,0.2l1,0.9  c0.3,0.3,0.3,0.7,0,1L18.8,10z"></path>
</svg>
