<svg xmlns="http://www.w3.org/2000/svg" width="18" height="16" viewBox="0 0 18 16" fill="none">
    <path fill-rule="evenodd" clip-rule="evenodd"
        d="M1.76165 7.84729C5.86439 6.05977 8.60023 4.88132 9.96906 4.312C13.8775 2.68638 14.6896 2.40397 15.2189 2.39463C15.3354 2.3926 15.5957 2.42146 15.7643 2.55829C16.0144 2.76126 16.0158 3.20183 15.9881 3.49342C15.7763 5.71882 14.8598 11.1192 14.3936 13.6117C14.1963 14.6663 13.8078 15.02 13.4318 15.0545C12.6145 15.1298 11.9939 14.5144 11.2023 13.9956C9.96367 13.1836 9.2639 12.6781 8.06153 11.8858C6.67203 10.9702 7.5728 10.4669 8.36467 9.64443C8.57192 9.4292 12.1729 6.15384 12.2426 5.85669C12.2513 5.81953 12.2594 5.68099 12.1771 5.60788C12.0948 5.53476 11.9733 5.55972 11.8857 5.57962C11.7615 5.60782 9.7827 6.91574 5.94938 9.50331C5.3877 9.88902 4.87896 10.0769 4.42316 10.0671C3.92063 10.0563 2.95406 9.78297 2.23548 9.54938C1.35412 9.2629 0.653621 9.11139 0.714643 8.62486C0.746419 8.37137 1.0954 8.11222 1.76165 7.84729Z"
        fill="white" />
</svg>