<svg width="28" height="28" viewBox="0 0 28 28" fill="none" xmlns="http://www.w3.org/2000/svg">
<path fill-rule="evenodd" clip-rule="evenodd" d="M28 14C28 21.732 21.732 28 14 28C6.26801 28 0 21.732 0 14C0 6.26801 6.26801 0 14 0C21.732 0 28 6.26801 28 14ZM14.5017 10.3354C13.14 10.9018 10.4185 12.074 6.3372 13.8522C5.67444 14.1157 5.32729 14.3735 5.29568 14.6257C5.24224 15.0518 5.77587 15.2196 6.50251 15.448C6.60129 15.4791 6.70363 15.5113 6.80855 15.5454C7.52337 15.7777 8.48489 16.0496 8.98479 16.0604C9.4382 16.0702 9.94428 15.8832 10.503 15.4996C14.3163 12.9255 16.2847 11.6245 16.4083 11.5964C16.4955 11.5766 16.6163 11.5518 16.6981 11.6245C16.78 11.6972 16.772 11.8351 16.7633 11.872C16.7104 12.0974 14.6153 14.0452 13.5316 15.0527C13.194 15.3665 12.9546 15.5891 12.9057 15.6399C12.7959 15.7539 12.684 15.8618 12.5765 15.9654C11.9125 16.6056 11.4145 17.0856 12.6041 17.8696C13.1762 18.2466 13.6339 18.5583 14.0906 18.8693C14.5887 19.2085 15.0856 19.5469 15.7285 19.9683C15.8924 20.0757 16.0489 20.1873 16.2014 20.296C16.7814 20.7095 17.3025 21.081 17.9463 21.0217C18.3203 20.9873 18.7067 20.6355 18.903 19.5864C19.3668 17.107 20.2785 11.7349 20.4892 9.52112C20.5168 9.23105 20.5154 8.79279 20.2665 8.59088C20.0988 8.45476 19.8399 8.42605 19.724 8.42808C19.1975 8.43737 18.3896 8.7183 14.5017 10.3354Z" fill="white"/>
</svg>
